# xmcd CD database file
#
# Track frame offsets:
#	150
#	17738
#	36707
#	50767
#	69307
#	88071
#	104972
#	123325
#	142091
#	165373
#	188294
#	209886
#	229296
#	247445
#	266598
#
# Disc length: 3820 seconds
#
# Revision: 0
# Processed by: cddbd v1.5.1PL0 Copyright (c) Steve Scherf et al.
# Submitted via: CDex 1.51
#
DISCID=ed0eea0f
DTITLE=Jeffrey Steele - Outlaw
DYEAR=2004
DGENRE=Country
TTITLE0=Countryfied
TTITLE1=20 Years Ago
TTITLE2=Dance
TTITLE3=Good Year for the Outlaw
TTITLE4=I Can't Stop You
TTITLE5=Just the Way We Do It
TTITLE6=Shot Glass
TTITLE7=That's The Stuff
TTITLE8=Runnin's What I'm Runnin' From.
TTITLE9=Once a Cowboy
TTITLE10=Drive
TTITLE11=What a Life
TTITLE12=She Must Be So Happy
TTITLE13=Swamp Thang
TTITLE14=20 Years Ago (Live)
EXTD=YEAR: 2004
EXTT0=
EXTT1=
EXTT2=
EXTT3=
EXTT4=
EXTT5=
EXTT6=
EXTT7=
EXTT8=
EXTT9=
EXTT10=
EXTT11=
EXTT12=
EXTT13=
EXTT14=
PLAYORDER=
